# xmcd CD database file
#
# Track frame offsets:
#	150
#	32009
#	57412
#	85507
#	101169
#	126245
#	149318
#	172747
#	194816
#
# Disc length: 2906 seconds
#
# Revision: 0
# Processed by: cddbd v1.5.2PL0 Copyright (c) Steve Scherf et al.
# Submitted via: CDex 1.70beta2
#
DISCID=7a0b5809
DTITLE=Omar Sosa - Across The Divide
DYEAR=2009
DGENRE=Jazz
TTITLE0=Promise Land
TTITLE1=Glu-Glu
TTITLE2=Gabriel's Trumpet
TTITLE3=Across Africa (The Dream)
TTITLE4=Across Africa (Arrival)
TTITLE5=Sugar Baby Blues
TTITLE6=Night of The Four Songs
TTITLE7=Solstice
TTITLE8=Ancestors
EXTD=YEAR: 2009
EXTT0=
EXTT1=
EXTT2=
EXTT3=
EXTT4=
EXTT5=
EXTT6=
EXTT7=
EXTT8=
PLAYORDER=
